<svg xmlns="http://www.w3.org/2000/svg" version="1.1" xmlns:xlink="http://www.w3.org/1999/xlink" xmlns:svgjs="http://svgjs.dev/svgjs" width="100" height="100" viewBox="0 0 2000 2250"><g transform="matrix(1,0,0,1,0.00014687500004129106,0)"><svg viewBox="0 0 320 360" data-background-color="#c8c8c8" preserveAspectRatio="xMidYMid meet" height="2250" width="2000" xmlns="http://www.w3.org/2000/svg" xmlns:xlink="http://www.w3.org/1999/xlink"><g id="tight-bounds" transform="matrix(1,0,0,1,0.000023499999997511622,0)"><svg viewBox="0 0 320 360" height="360" width="320"><g><svg></svg></g><g><svg viewBox="0 0 320 360" height="360" width="320"><g><path transform="translate(-74.99272,-51.79039) scale(4.65793,4.65793)" d="M20.6 59.9l0.8 1-0.4-1.3c-0.1-0.6-0.8 0.1-0.4 0.3M21.5 59.3c0.3 0.5 0.6 1 0.6 1.5 0 0.7 0.6 1 1.1 1.2-0.7-0.8-1.1-3-1.7-2.7M59.9 16.9c1.7 0 3.3-0.2 5.1 0.2 4.4 1.1 8.1 3.3 10.6 6.4l7 11.2c0.3 2.8 0.9 5.9 0.8 9.3 0.7 0 0.6-1 1.4-1.2-0.8 2-1.2 4.5-1.4 7.4-0.5-1.6 0-4 0.1-5.3-0.7 1.1-1.1 0.3-1.1-0.2 0.1-0.8-0.3-0.7-0.6-1-1.1-1-1.8-2.1-2.6-3.8 0.5-1.3 0.6-3.2-1-4.2-0.5-0.3-1.1-0.8-1.4-1.6-0.4-1.1-1.1-2.4-0.9-4.1 0.1-0.5-1.5 1.1-2.4 0.4-3.9-2.7-7.8-5.8-12.5-8.4-2.5 0-4.3-0.9-5.2-2-0.8-1-0.2-2.3 1-2.4 0.7 0 1.5-0.2 2.1 0.2 0.1-0.4 0.5-0.9 1-0.9M50 14.6l0.2 0.1c1 0.2 1.5 1.6 2.6 1.1 0 0.7 0.1 1.4-0.1 1.9-0.3 0.8-1.2 0.8-1.9 0.8-6.7-0.4-10.6 2.4-14.7 4.8-1.1 0.7-2.3 1.2-3.2 2.1-4.3 4-9 7.7-10.1 15.1l-0.9 8.2c-0.1 0.9-1.1 1.8-0.9 2.9l0.7 4.9c-0.7-0.7-1.1 0.2-0.9 0.6 0.1 0.3 0.5 1.3 1.1 0.4 0.8 1.5 1.6 4.4 2.7 5.7 3.4 4 7.8 7.6 11.4 11.2 0.9-0.2 1.6-0.2 1.8-0.8 0.3 0.6-0.3 1.2-0.8 1.3 1.6 1 3.4 1.9 5.8 2.1 3.1 0.2 6 0.7 8.7 1.4 1.4-0.4 2.8-0.6 4.3-0.7 0.5 0 0.8-0.8 1.4-1l0.1-1c0.6 0.9 0.5-0.3 0.1-0.9 0.7 0.6 0.9 1.1 1.2 1.5 0-0.3 0.8-1.4 0.8-0.1l0.2-1.3c0.3-0.2 0.4 1.1 0.7 0.2 0.3-0.9 0.9-0.2 1.5-0.5-0.2 0.4-0.1 1.2 0.6 0.7l0.8-0.7c0.5 1.2 1.3 0.7 1.7 0.5 4.4-2.8 8.8-6.1 13-9.4l-0.1 1.3 0.5-1.6c0.5 0.5 0.9 0.1 1.1-0.2 0.6-1 1.4-2 2.7-2.9-1.6 4.3-3.5 7.7-5.9 10.5l-1 1.2c0 0.7-0.2 1.6-1 1.7-0.4 0.1-1.2-0.2-1.8 0.4-0.3 0.4 0.7 1.2-0.1 0.6-0.7-0.5-1.4 0-2.2 0.2-0.6 0.2 0.4 0.8 0.6 1.2 0.2 0.4 0.4 0.8 0.3 1.3l-1.1-1.2c-1.3 0.7-2.1 2-3.2 3-0.5 0.4-0.3 1.1-0.3 1.7-0.7 0-1.5-0.2-1.9 0.2-0.3 0.4-0.2 1-0.2 1.6-1-0.1-1.1-1.6-2-1.3-0.9 0.2-1.9 0.3-2.7 0.8 0.6 1.2-1 0.5-0.8 0.7-1.5-0.9-2.8-1.6-4.4-1-3.4-1.1-7.6-0.6-10.7-0.2 0-0.5 0.1-1-0.1-1.1-0.2 0.5-0.8 0.3-0.7 0.3-1.9-1.3-3.8-2.1-5.8-3.2-1.8 0.2-3.5-0.7-4-1.2-1.4-1.3-3-0.6-4.3-0.9-2.8-0.7-3.8-3.6-4.1-5.6-0.2-1-1-1.4-1.3-1.3-1.3-4.2-3.3-8-4.9-11.9-0.4-1-0.3-2-0.3-3.1 0.5 0.2 1 0.1 0.9-0.6-0.5-3.3-1.7-5.8-3-8.2 0.7-3.4 0.8-7.4 2.4-10.4 1.4-2.7 4-4.1 5.8-6.4 0.6-0.8 0.6-1.9 1.2-2.6 2-2 4-4.1 6.2-5.9 1-0.8 2.2 0 3.7-0.3 0.5-1.8 2.5-3.4 4.4-2.9 0.8 0.2 2.4-1.9 2.9-2.1 0.8-0.3 0.4 0.8 0.4 1.5 1.9-1.5 4.5-2.3 6.9-3.2" fill="#000000" fill-rule="nonzero" stroke="none" stroke-width="1" stroke-linecap="butt" stroke-linejoin="miter" stroke-miterlimit="10" stroke-dasharray="" stroke-dashoffset="0" font-family="none" font-weight="none" font-size="none" text-anchor="none" style="mix-blend-mode: normal" data-fill-palette-color="tertiary"></path></g><g transform="matrix(1,0,0,1,64,141.3657384904398)"><svg viewBox="0 0 192 77.26852301912038" height="77.26852301912038" width="192"><g><svg viewBox="0 0 192 77.26852301912038" height="77.26852301912038" width="192"><g><svg viewBox="0 0 192 77.26852301912038" height="77.26852301912038" width="192"><g transform="matrix(1,0,0,1,0,45.91879320296006)"><svg viewBox="0 0 192 31.349729816160313" height="31.349729816160313" width="192"><g id="textblocktransform"><svg viewBox="0 0 192 31.349729816160313" height="31.349729816160313" width="192" id="textblock"><g><svg viewBox="0 0 192 17.77272139625081" height="17.77272139625081" width="192"><g transform="matrix(1,0,0,1,0,0)"><svg width="192" viewBox="0 -35.8 386.72 35.8" height="17.77272139625081" data-palette-color="#000000"><path d="M18.05-2.15L30.2-2.15 30.2 0 0 0 0-2.15 12.15-2.15 12.15-29.55 1.55-29.55 1.55-34.95 28.65-34.95 28.65-29.55 18.05-29.55 18.05-2.15ZM30.2-2.15L35.05-2.15 35.05-34.95 59.6-34.95 59.6-29.4 40.95-29.4 40.95-20.15 57.7-20.15 57.7-14.9 40.95-14.9 40.95-5.55 60.2-5.55 60.2-2.15 65.05-2.15 65.05 0 30.2 0 30.2-2.15ZM93.15-2.15L99.7-2.15 99.7 0 62.9 0 62.9-2.15 74-2.15Q70.05-4.5 67.77-8.55 65.5-12.6 65.5-17.7L65.5-17.7Q65.5-25.4 70.82-30.6 76.15-35.8 84.27-35.8 92.4-35.8 97.85-29.8L97.85-29.8 94.1-25.7Q91.6-28.1 89.37-29.05 87.15-30 84.15-30L84.15-30Q78.85-30 75.25-26.58 71.65-23.15 71.65-17.82 71.65-12.5 75.22-8.93 78.8-5.35 83.7-5.35L83.7-5.35Q86.75-5.35 88.95-6.38 91.15-7.4 93.55-9.65L93.55-9.65 97.35-5.75Q95.15-3.35 93.15-2.15L93.15-2.15ZM138.54 0L138.54-2.15 133.69-2.15 133.69-34.95 127.79-34.95 127.79-19.8 110.44-19.8 110.44-34.95 104.54-34.95 104.54 0 110.44 0 110.44-14.3 127.79-14.3 127.79 0 138.54 0ZM99.69-2.15L104.54-2.15 104.54 0 99.69 0 99.69-2.15ZM138.54-2.15L152.24-2.15 152.24 0 138.54 0 138.54-2.15ZM185.04-2.15L189.89-2.15 189.89 0 179.09 0 170.74-11.75 162.99-11.75 162.99 0 152.24 0 152.24-2.15 157.09-2.15 157.09-34.95 170.09-34.95Q178.09-34.95 181.54-32.25 184.99-29.55 184.99-23.6L184.99-23.6Q184.99-14.95 177.44-12.7L177.44-12.7 185.04-2.15ZM170.34-17.1Q175.34-17.1 177.14-18.65 178.94-20.2 178.94-23.63 178.94-27.05 177.09-28.33 175.24-29.6 170.49-29.6L170.49-29.6 162.99-29.6 162.99-17.1 170.34-17.1ZM224.79-2.15L230.59-2.15 230.59 0 219.44 0 215.94-7.95 198.44-7.95 194.94 0 183.79 0 183.79-2.15 189.59-2.15 204.04-34.95 210.34-34.95 224.79-2.15ZM200.84-13.4L213.54-13.4 207.19-27.8 200.84-13.4ZM236.48-2.15L255.93-2.15 255.93 0 225.73 0 225.73-2.15 230.58-2.15 230.58-34.95 253.88-34.95 253.83-29.45 236.48-29.45 236.48-19.85 251.98-19.85 251.98-14.4 236.48-14.4 236.48-2.15ZM273.98-2.15L286.13-2.15 286.13 0 255.93 0 255.93-2.15 268.08-2.15 268.08-29.55 257.48-29.55 257.48-34.95 284.58-34.95 284.58-29.55 273.98-29.55 273.98-2.15ZM286.13-2.15L290.98-2.15 290.98-34.95 315.53-34.95 315.53-29.4 296.88-29.4 296.88-20.15 313.63-20.15 313.63-14.9 296.88-14.9 296.88-5.55 316.13-5.55 316.13-2.15 320.98-2.15 320.98 0 286.13 0 286.13-2.15ZM351.63-2.15L356.47-2.15 356.47 0 345.68 0 337.32-11.75 329.57-11.75 329.57 0 318.82 0 318.82-2.15 323.68-2.15 323.68-34.95 336.68-34.95Q344.68-34.95 348.13-32.25 351.57-29.55 351.57-23.6L351.57-23.6Q351.57-14.95 344.02-12.7L344.02-12.7 351.63-2.15ZM336.93-17.1Q341.93-17.1 343.72-18.65 345.52-20.2 345.52-23.63 345.52-27.05 343.68-28.33 341.82-29.6 337.07-29.6L337.07-29.6 329.57-29.6 329.57-17.1 336.93-17.1ZM380.47-2.15L386.72-2.15 386.72 0 355.22 0 355.22-2.15 361.62-2.15Q359.22-3.4 357.22-5.25L357.22-5.25 360.92-9.7Q366.22-5.1 371.92-5.1L371.92-5.1Q374.77-5.1 376.45-6.33 378.12-7.55 378.12-9.58 378.12-11.6 376.55-12.73 374.97-13.85 371.12-14.78 367.27-15.7 365.27-16.48 363.27-17.25 361.72-18.5L361.72-18.5Q358.62-20.85 358.62-25.7 358.62-30.55 362.15-33.18 365.67-35.8 370.87-35.8L370.87-35.8Q374.22-35.8 377.52-34.7 380.82-33.6 383.22-31.6L383.22-31.6 380.07-27.15Q378.52-28.55 375.87-29.45 373.22-30.35 370.65-30.35 368.07-30.35 366.42-29.3 364.77-28.25 364.77-26.13 364.77-24 366.42-22.88 368.07-21.75 373.45-20.45 378.82-19.15 381.55-16.8 384.27-14.45 384.27-10.2L384.27-10.2Q384.27-5.05 380.47-2.15L380.47-2.15Z" opacity="1" transform="matrix(1,0,0,1,0,0)" fill="#000000" class="wordmark-text-0" data-fill-palette-color="primary" id="text-0"></path></svg></g></svg></g><g transform="matrix(1,0,0,1,0,20.36618799327731)"><svg viewBox="0 0 192 10.983541822883" height="10.983541822883" width="192"><g transform="matrix(1,0,0,1,0,0)"><svg width="192" viewBox="1.61 -32.64 574.87 32.88" height="10.983541822883" data-palette-color="#000000"><path d="M10.25 0.24Q8.08 0.24 6.37-1.07 4.66-2.39 4.66-5.74L4.66-5.74 4.66-19.58 2.49-19.58Q2.03-19.58 1.82-19.89 1.61-20.19 1.61-20.87L1.61-20.87 1.61-21.41Q1.61-22.09 1.82-22.4 2.03-22.71 2.49-22.71L2.49-22.71 4.66-22.71 5.18-27.25Q5.22-28.2 6.57-28.2L6.57-28.2 6.98-28.2Q7.67-28.2 7.98-27.97 8.3-27.73 8.3-27.25L8.3-27.25 8.3-22.71 11.94-22.71Q12.4-22.71 12.61-22.4 12.82-22.09 12.82-21.41L12.82-21.41 12.82-20.87Q12.82-20.19 12.61-19.89 12.4-19.58 11.94-19.58L11.94-19.58 8.3-19.58 8.3-6.08Q8.3-4.3 8.92-3.59 9.55-2.88 10.62-2.88L10.62-2.88Q11.45-2.88 11.9-2.98 12.35-3.08 12.5-3.08L12.5-3.08Q12.89-3.08 13.15-2.29 13.4-1.51 13.4-1.05L13.4-1.05Q13.4 0.24 10.25 0.24L10.25 0.24ZM193.23 0.24Q187.83 0.24 185.21-2.58 182.58-5.4 182.58-11.21L182.58-11.21Q182.58-16.97 185.14-19.96 187.71-22.95 192.69-22.95L192.69-22.95Q197.13-22.95 199.39-20.07 201.65-17.19 201.65-11.62L201.65-11.62Q201.65-11.38 201.39-10.95 201.14-10.52 200.78-10.19 200.43-9.86 200.18-9.86L200.18-9.86 186.49-9.86Q186.76-6.23 188.35-4.55 189.95-2.88 193.18-2.88L193.18-2.88Q194.98-2.88 196.29-3.32 197.6-3.76 198.82-4.39L198.82-4.39Q198.94-4.44 199.18-4.57 199.43-4.69 199.52-4.69L199.52-4.69Q199.79-4.69 200.15-4.26 200.5-3.83 200.76-3.31 201.01-2.78 201.01-2.54L201.01-2.54Q201.01-2 199.94-1.34 198.86-0.68 197.07-0.22 195.28 0.24 193.23 0.24L193.23 0.24ZM186.49-12.99L197.77-12.99Q197.77-19.82 192.57-19.82L192.57-19.82Q186.98-19.82 186.49-12.99L186.49-12.99ZM381.86 0.24Q376.46 0.24 373.82-2.53 371.17-5.3 371.17-11.45L371.17-11.45Q371.17-17.68 374.12-20.31 377.08-22.95 381.47-22.95L381.47-22.95Q383.11-22.95 384.62-22.67 386.13-22.39 387.06-21.92 387.99-21.46 387.99-20.95L387.99-20.95Q387.99-20.61 387.76-20.04 387.52-19.48 387.19-19.06 386.87-18.63 386.6-18.63L386.6-18.63Q386.52-18.63 386.38-18.69 386.23-18.75 386.11-18.8L386.11-18.8Q383.91-19.82 381.37-19.82L381.37-19.82Q378.37-19.82 376.73-17.86 375.1-15.89 375.1-11.55L375.1-11.55Q375.1-8.47 375.76-6.58 376.42-4.69 377.89-3.78 379.37-2.88 381.84-2.88L381.84-2.88Q384.55-2.88 386.72-4L386.72-4Q386.94-4.05 387.05-4.11 387.16-4.17 387.21-4.17L387.21-4.17Q387.48-4.17 387.82-3.76 388.16-3.34 388.42-2.81 388.67-2.27 388.67-1.95L388.67-1.95Q388.67-1.44 387.74-0.93 386.82-0.42 385.24-0.09 383.67 0.24 381.86 0.24L381.86 0.24ZM561.02 0.07Q559.29 0.07 559.29-0.88L559.29-0.88 559.29-31.69Q559.29-32.64 561.02-32.64L561.02-32.64 561.19-32.64Q562.95-32.64 562.95-31.69L562.95-31.69 562.95-19.97Q564.22-21.26 565.93-22.11 567.64-22.95 569.57-22.95L569.57-22.95Q572.3-22.95 574.39-21.41 576.48-19.87 576.48-15.94L576.48-15.94 576.48-0.88Q576.48 0.07 574.74 0.07L574.74 0.07 574.57 0.07Q572.82 0.07 572.82-0.88L572.82-0.88 572.82-15.58Q572.82-17.55 571.69-18.68 570.57-19.8 568.4-19.8L568.4-19.8Q566.96-19.8 565.75-19.12 564.54-18.43 563.75-17.64 562.95-16.85 562.95-16.75L562.95-16.75 562.95-0.88Q562.95 0.07 561.19 0.07L561.19 0.07 561.02 0.07Z" opacity="1" transform="matrix(1,0,0,1,0,0)" fill="#000000" class="slogan-text-1" data-fill-palette-color="secondary" id="text-1"></path></svg></g></svg></g></svg></g></svg></g><g transform="matrix(1,0,0,1,76.1365633485757,0)"><svg viewBox="0 0 39.72687330284858 43.325326605933554" height="43.325326605933554" width="39.72687330284858"><g><svg xmlns="http://www.w3.org/2000/svg" xmlns:xlink="http://www.w3.org/1999/xlink" version="1.1" x="0" y="0" viewBox="5.789285714285714 1 89.32011384395584 97.41071428571428" style="enable-background:new 0 0 100 100;" xml:space="preserve" height="43.325326605933554" width="39.72687330284858" class="icon-icon-0" data-fill-palette-color="accent" id="icon-0"><path d="M93.1 35.8h-6.5c-1-4.1-2.4-7.6-4.8-11l5.5-5.5c0.3-0.3 0.7-1 0.7-1.4 0-0.7-0.3-1-0.7-1.4l-7.2-7.2c-0.7-0.7-2.1-0.7-3.1 0l-5.5 5.5c-3.1-2.1-6.5-3.4-10-4.5V3.1c0-1-1-2.1-2.1-2.1H49.1c-1 0-2.1 1-2.1 2.1V10c-3.8 0.7-7.2 2.4-10.3 4.1l-5.9-5.9c-0.7-0.7-2.1-0.7-3.1 0l-7.2 7.2c-0.3 0.3-0.7 1-0.7 1.4 0 0.3 0.3 1 0.7 1.4l5.9 5.9c-2.1 3.4-3.8 7.2-4.8 11.4H15c-1 0-2.1 1-2.1 2.1v10.3c0 1 1 2.1 2.1 2.1h6.5c0.6 3.5 2.2 6.7 3.7 9.6l5.3-6.4c-1.4-3.2-2.2-6.8-2.2-10.5 0-14.3 11.6-25.9 25.9-25.9 14.3 0 25.9 11.6 25.9 25.9 0 14.3-11.6 25.9-25.9 25.9-2.5 0-5-0.4-7.3-1l-5 6c1.6 0.6 3.3 1.1 5 1.5v5.9c0 1 1 2.1 2.1 2.1h10.3c1 0 2.1-1 2.1-2.1v-6.2c4.1-1 7.6-2.4 11-4.8l4.5 4.5c0.3 0.3 1 0.7 1.4 0.7s1-0.3 1.4-0.7l7.2-7.2c0.3-0.3 0.7-1 0.7-1.4 0-0.7-0.3-1-0.7-1.4l-4.5-4.5c2.1-3.1 3.4-6.5 4.1-10.3h6.5c1 0 2.1-1 2.1-2.1V37.2C95.2 36.9 94.5 35.8 93.1 35.8z" fill="#000000" data-fill-palette-color="accent"></path><path d="M74.5 40.5c-0.3-3.3-1.4-6.5-3.4-9.3L58.6 46l-8.2-6.8 12.5-14.7c-2.9-1.2-6-1.7-9.1-1.5-10.5 0.9-18.4 10.2-17.5 20.7 0.2 2.1 0.7 4.2 1.6 6.2l0.1 0.2L7.6 86c-1.3 1.5-1.9 3.5-1.8 5.5 0.2 2 1.1 3.8 2.6 5.1 1.5 1.3 3.5 1.9 5.5 1.8 2-0.2 3.8-1.1 5.1-2.6l30-35.5 0.3 0.1c2.5 0.8 5.1 1.1 7.7 0.9C67.5 60.4 75.4 51.1 74.5 40.5zM13.7 93.1c-1.5 0.1-2.7-1-2.8-2.4-0.1-1.5 1-2.7 2.4-2.8 1.5-0.1 2.7 1 2.8 2.4C16.2 91.7 15.2 93 13.7 93.1z" fill="#000000" data-fill-palette-color="accent"></path></svg></g></svg></g><g></g></svg></g></svg></g></svg></g></svg></g><defs></defs></svg><rect width="320" height="360" fill="none" stroke="none" visibility="hidden"></rect></g></svg></g></svg>