<svg xmlns="http://www.w3.org/2000/svg" version="1.1" xmlns:xlink="http://www.w3.org/1999/xlink" xmlns:svgjs="http://svgjs.dev/svgjs" width="200" height="200" viewBox="0 0 2000 429"><g transform="matrix(1,0,0,1,-1.2121212121212466,-1.0997001257647412)"><svg viewBox="0 0 396 85" data-background-color="#ffffff" preserveAspectRatio="xMidYMid meet" height="429" width="2000" xmlns="http://www.w3.org/2000/svg" xmlns:xlink="http://www.w3.org/1999/xlink"><g id="tight-bounds" transform="matrix(1,0,0,1,0.2400000000000091,0.21788930230769665)"><svg viewBox="0 0 395.52 84.56422139538464" height="84.56422139538464" width="395.52"><g><svg viewBox="0 0 395.52 84.56422139538464" height="84.56422139538464" width="395.52"><g><svg viewBox="0 0 395.52 84.56422139538464" height="84.56422139538464" width="395.52"><g id="textblocktransform"><svg viewBox="0 0 395.52 84.56422139538464" height="84.56422139538464" width="395.52" id="textblock"><g><svg viewBox="0 0 395.52 50.1844019624429" height="50.1844019624429" width="395.52"><g transform="matrix(1,0,0,1,0,0)"><svg width="395.52" viewBox="1.25 -37 292.02 37.5" height="50.1844019624429" data-palette-color="#3d9970"><g class="wordmark-text-0" data-fill-palette-color="primary" id="text-0"><path d="M15.75 0L13.15 0Q12.65 0 12.33-0.33 12-0.65 12-1.15L12-1.15 12-30.55 2.4-30.55Q1.9-30.55 1.58-30.88 1.25-31.2 1.25-31.7L1.25-31.7 1.25-33.8Q1.25-34.35 1.58-34.68 1.9-35 2.4-35L2.4-35 26.5-35Q27.05-35 27.38-34.68 27.7-34.35 27.7-33.8L27.7-33.8 27.7-31.7Q27.7-31.2 27.38-30.88 27.05-30.55 26.5-30.55L26.5-30.55 16.95-30.55 16.95-1.15Q16.95-0.65 16.63-0.33 16.3 0 15.75 0L15.75 0ZM43.05 0.5L43.05 0.5Q37.85 0.5 34.8-2.68 31.75-5.85 31.45-11.35L31.45-11.35Q31.4-12 31.4-13.03 31.4-14.05 31.45-14.7L31.45-14.7Q31.65-18.25 33.1-20.93 34.55-23.6 37.07-25.05 39.6-26.5 43-26.5L43-26.5Q46.8-26.5 49.37-24.9 51.95-23.3 53.3-20.35 54.65-17.4 54.65-13.45L54.65-13.45 54.65-12.6Q54.65-12.05 54.32-11.75 54-11.45 53.5-11.45L53.5-11.45 36.2-11.45Q36.2-11.4 36.2-11.25 36.2-11.1 36.2-11L36.2-11Q36.3-8.95 37.1-7.18 37.9-5.4 39.42-4.3 40.95-3.2 43-3.2L43-3.2Q44.8-3.2 46-3.75 47.2-4.3 47.95-4.98 48.7-5.65 48.95-6.05L48.95-6.05Q49.4-6.65 49.65-6.78 49.9-6.9 50.45-6.9L50.45-6.9 52.9-6.9Q53.35-6.9 53.67-6.63 54-6.35 53.95-5.85L53.95-5.85Q53.9-5.1 53.15-4.03 52.4-2.95 51.02-1.9 49.65-0.85 47.62-0.18 45.6 0.5 43.05 0.5ZM36.2-15.05L36.2-14.9 49.9-14.9 49.9-15.05Q49.9-17.3 49.07-19.05 48.25-20.8 46.7-21.83 45.15-22.85 43-22.85L43-22.85Q40.85-22.85 39.32-21.83 37.8-20.8 37-19.05 36.2-17.3 36.2-15.05L36.2-15.05ZM71.15 0.5L71.15 0.5Q67.6 0.5 65.02-0.88 62.45-2.25 61.05-4.83 59.65-7.4 59.55-11L59.55-11Q59.5-11.75 59.5-13 59.5-14.25 59.55-15L59.55-15Q59.65-18.6 61.05-21.18 62.45-23.75 65.02-25.13 67.6-26.5 71.15-26.5L71.15-26.5Q74.05-26.5 76.12-25.7 78.2-24.9 79.55-23.65 80.9-22.4 81.57-20.95 82.25-19.5 82.3-18.2L82.3-18.2Q82.35-17.7 82-17.4 81.65-17.1 81.15-17.1L81.15-17.1 78.75-17.1Q78.25-17.1 78-17.32 77.75-17.55 77.5-18.1L77.5-18.1Q76.6-20.55 75.05-21.55 73.5-22.55 71.2-22.55L71.2-22.55Q68.2-22.55 66.32-20.7 64.45-18.85 64.3-14.75L64.3-14.75Q64.25-12.95 64.3-11.25L64.3-11.25Q64.45-7.1 66.32-5.28 68.2-3.45 71.2-3.45L71.2-3.45Q73.5-3.45 75.05-4.45 76.6-5.45 77.5-7.9L77.5-7.9Q77.75-8.45 78-8.7 78.25-8.95 78.75-8.95L78.75-8.95 81.15-8.95Q81.65-8.95 82-8.63 82.35-8.3 82.3-7.8L82.3-7.8Q82.25-6.75 81.85-5.65 81.45-4.55 80.57-3.43 79.7-2.3 78.4-1.43 77.1-0.55 75.3-0.03 73.5 0.5 71.15 0.5ZM91.94 0L89.44 0Q88.94 0 88.62-0.33 88.29-0.65 88.29-1.15L88.29-1.15 88.29-34.35Q88.29-34.85 88.62-35.18 88.94-35.5 89.44-35.5L89.44-35.5 91.94-35.5Q92.49-35.5 92.79-35.18 93.09-34.85 93.09-34.35L93.09-34.35 93.09-22.7Q94.44-24.4 96.39-25.45 98.34-26.5 101.34-26.5L101.34-26.5Q104.59-26.5 106.87-25.08 109.14-23.65 110.32-21.13 111.49-18.6 111.49-15.25L111.49-15.25 111.49-1.15Q111.49-0.65 111.19-0.33 110.89 0 110.34 0L110.34 0 107.84 0Q107.34 0 107.02-0.33 106.69-0.65 106.69-1.15L106.69-1.15 106.69-15Q106.69-18.5 104.99-20.48 103.29-22.45 99.99-22.45L99.99-22.45Q96.89-22.45 94.99-20.48 93.09-18.5 93.09-15L93.09-15 93.09-1.15Q93.09-0.65 92.79-0.33 92.49 0 91.94 0L91.94 0Z" fill="#3d9970" data-fill-palette-color="primary"></path><path d="M131.79 0L129.24 0Q128.69 0 128.39-0.33 128.09-0.65 128.09-1.15L128.09-1.15 128.09-33.8Q128.09-34.35 128.39-34.68 128.69-35 129.24-35L129.24-35 141.44-35Q147.09-35 150.39-32.35 153.69-29.7 153.69-24.5L153.69-24.5Q153.69-20.65 151.76-18.23 149.84-15.8 146.54-14.85L146.54-14.85 154.24-1.55Q154.39-1.25 154.39-1L154.39-1Q154.39-0.6 154.06-0.3 153.74 0 153.34 0L153.34 0 150.94 0Q150.09 0 149.69-0.45 149.29-0.9 148.99-1.35L148.99-1.35 141.74-14.05 132.99-14.05 132.99-1.15Q132.99-0.65 132.66-0.33 132.34 0 131.79 0L131.79 0ZM132.99-30.8L132.99-18.3 141.24-18.3Q144.99-18.3 146.84-19.88 148.69-21.45 148.69-24.55L148.69-24.55Q148.69-27.6 146.86-29.2 145.04-30.8 141.24-30.8L141.24-30.8 132.99-30.8ZM167.44 0.5L167.44 0.5Q164.94 0.5 162.89-0.5 160.84-1.5 159.59-3.2 158.34-4.9 158.34-7.05L158.34-7.05Q158.34-10.5 161.14-12.55 163.94-14.6 168.44-15.25L168.44-15.25 175.89-16.3 175.89-17.75Q175.89-20.15 174.51-21.5 173.14-22.85 170.04-22.85L170.04-22.85Q167.84-22.85 166.44-21.95 165.04-21.05 164.49-19.65L164.49-19.65Q164.19-18.9 163.44-18.9L163.44-18.9 161.19-18.9Q160.64-18.9 160.36-19.23 160.09-19.55 160.09-20L160.09-20Q160.09-20.75 160.66-21.85 161.24-22.95 162.44-24 163.64-25.05 165.51-25.78 167.39-26.5 170.09-26.5L170.09-26.5Q173.09-26.5 175.14-25.73 177.19-24.95 178.36-23.65 179.54-22.35 180.06-20.7 180.58-19.05 180.58-17.35L180.58-17.35 180.58-1.15Q180.58-0.65 180.26-0.33 179.94 0 179.44 0L179.44 0 177.14 0Q176.58 0 176.29-0.33 175.99-0.65 175.99-1.15L175.99-1.15 175.99-3.3Q175.34-2.4 174.24-1.53 173.14-0.65 171.49-0.08 169.84 0.5 167.44 0.5ZM168.49-3.25L168.49-3.25Q170.54-3.25 172.24-4.13 173.94-5 174.91-6.85 175.89-8.7 175.89-11.5L175.89-11.5 175.89-12.9 170.09-12.05Q166.54-11.55 164.74-10.38 162.94-9.2 162.94-7.4L162.94-7.4Q162.94-6 163.76-5.08 164.59-4.15 165.86-3.7 167.14-3.25 168.49-3.25ZM193.88 0L191.53 0Q191.03 0 190.71-0.33 190.38-0.65 190.38-1.15L190.38-1.15 190.38-22 186.13-22Q185.63-22 185.31-22.33 184.98-22.65 184.98-23.15L184.98-23.15 184.98-24.85Q184.98-25.35 185.31-25.68 185.63-26 186.13-26L186.13-26 190.38-26 190.38-28.5Q190.38-31.05 191.23-32.98 192.08-34.9 193.96-35.95 195.83-37 198.98-37L198.98-37 201.98-37Q202.48-37 202.81-36.68 203.13-36.35 203.13-35.85L203.13-35.85 203.13-34.15Q203.13-33.65 202.81-33.33 202.48-33 201.98-33L201.98-33 199.08-33Q196.73-33 195.88-31.78 195.03-30.55 195.03-28.25L195.03-28.25 195.03-26 201.48-26Q201.98-26 202.31-25.68 202.63-25.35 202.63-24.85L202.63-24.85 202.63-23.15Q202.63-22.65 202.31-22.33 201.98-22 201.48-22L201.48-22 195.03-22 195.03-1.15Q195.03-0.65 194.71-0.33 194.38 0 193.88 0L193.88 0ZM220.63 0L217.18 0Q214.38 0 212.63-1.07 210.88-2.15 210.08-4.13 209.28-6.1 209.28-8.8L209.28-8.8 209.28-22 205.38-22Q204.88-22 204.55-22.33 204.23-22.65 204.23-23.15L204.23-23.15 204.23-24.85Q204.23-25.35 204.55-25.68 204.88-26 205.38-26L205.38-26 209.28-26 209.28-34.35Q209.28-34.85 209.61-35.18 209.93-35.5 210.43-35.5L210.43-35.5 212.78-35.5Q213.28-35.5 213.61-35.18 213.93-34.85 213.93-34.35L213.93-34.35 213.93-26 220.13-26Q220.68-26 220.98-25.68 221.28-25.35 221.28-24.85L221.28-24.85 221.28-23.15Q221.28-22.65 220.98-22.33 220.68-22 220.13-22L220.13-22 213.93-22 213.93-9.15Q213.93-6.8 214.73-5.45 215.53-4.1 217.58-4.1L217.58-4.1 220.63-4.1Q221.13-4.1 221.46-3.78 221.78-3.45 221.78-2.95L221.78-2.95 221.78-1.15Q221.78-0.65 221.46-0.33 221.13 0 220.63 0L220.63 0ZM236.98 0.5L236.98 0.5Q231.78 0.5 228.73-2.68 225.68-5.85 225.38-11.35L225.38-11.35Q225.33-12 225.33-13.03 225.33-14.05 225.38-14.7L225.38-14.7Q225.58-18.25 227.03-20.93 228.48-23.6 231-25.05 233.53-26.5 236.93-26.5L236.93-26.5Q240.73-26.5 243.3-24.9 245.88-23.3 247.23-20.35 248.58-17.4 248.58-13.45L248.58-13.45 248.58-12.6Q248.58-12.05 248.25-11.75 247.93-11.45 247.43-11.45L247.43-11.45 230.13-11.45Q230.13-11.4 230.13-11.25 230.13-11.1 230.13-11L230.13-11Q230.23-8.95 231.03-7.18 231.83-5.4 233.35-4.3 234.88-3.2 236.93-3.2L236.93-3.2Q238.73-3.2 239.93-3.75 241.13-4.3 241.88-4.98 242.63-5.65 242.88-6.05L242.88-6.05Q243.33-6.65 243.58-6.78 243.83-6.9 244.38-6.9L244.38-6.9 246.83-6.9Q247.28-6.9 247.6-6.63 247.93-6.35 247.88-5.85L247.88-5.85Q247.83-5.1 247.08-4.03 246.33-2.95 244.95-1.9 243.58-0.85 241.55-0.18 239.53 0.5 236.98 0.5ZM230.13-15.05L230.13-14.9 243.83-14.9 243.83-15.05Q243.83-17.3 243-19.05 242.18-20.8 240.63-21.83 239.08-22.85 236.93-22.85L236.93-22.85Q234.78-22.85 233.25-21.83 231.73-20.8 230.93-19.05 230.13-17.3 230.13-15.05L230.13-15.05ZM258.18 0L255.72 0Q255.22 0 254.9-0.33 254.57-0.65 254.57-1.15L254.57-1.15 254.57-24.8Q254.57-25.3 254.9-25.65 255.22-26 255.72-26L255.72-26 258.02-26Q258.52-26 258.87-25.65 259.22-25.3 259.22-24.8L259.22-24.8 259.22-22.6Q260.22-24.3 261.97-25.15 263.72-26 266.22-26L266.22-26 268.18-26Q268.68-26 269-25.68 269.32-25.35 269.32-24.85L269.32-24.85 269.32-22.8Q269.32-22.3 269-22 268.68-21.7 268.18-21.7L268.18-21.7 265.18-21.7Q262.47-21.7 260.93-20.13 259.37-18.55 259.37-15.85L259.37-15.85 259.37-1.15Q259.37-0.65 259.02-0.33 258.68 0 258.18 0L258.18 0ZM282.57 0.5L282.57 0.5Q279.77 0.5 277.77-0.2 275.77-0.9 274.52-1.9 273.27-2.9 272.65-3.9 272.02-4.9 271.97-5.5L271.97-5.5Q271.92-6.05 272.32-6.35 272.72-6.65 273.12-6.65L273.12-6.65 275.37-6.65Q275.62-6.65 275.8-6.58 275.97-6.5 276.27-6.15L276.27-6.15Q276.92-5.45 277.72-4.75 278.52-4.05 279.7-3.6 280.87-3.15 282.62-3.15L282.62-3.15Q285.17-3.15 286.82-4.13 288.47-5.1 288.47-7L288.47-7Q288.47-8.25 287.8-9 287.12-9.75 285.4-10.35 283.67-10.95 280.67-11.6L280.67-11.6Q277.67-12.3 275.92-13.33 274.17-14.35 273.42-15.78 272.67-17.2 272.67-19L272.67-19Q272.67-20.85 273.77-22.58 274.87-24.3 277-25.4 279.12-26.5 282.32-26.5L282.32-26.5Q284.92-26.5 286.77-25.85 288.62-25.2 289.82-24.23 291.02-23.25 291.62-22.3 292.22-21.35 292.27-20.7L292.27-20.7Q292.32-20.2 291.97-19.88 291.62-19.55 291.17-19.55L291.17-19.55 289.07-19.55Q288.72-19.55 288.5-19.7 288.27-19.85 288.07-20.05L288.07-20.05Q287.57-20.7 286.9-21.35 286.22-22 285.15-22.43 284.07-22.85 282.32-22.85L282.32-22.85Q279.82-22.85 278.57-21.8 277.32-20.75 277.32-19.15L277.32-19.15Q277.32-18.2 277.87-17.45 278.42-16.7 279.97-16.1 281.52-15.5 284.57-14.8L284.57-14.8Q287.87-14.15 289.77-13.05 291.67-11.95 292.47-10.5 293.27-9.05 293.27-7.15L293.27-7.15Q293.27-5.05 292.07-3.3 290.87-1.55 288.47-0.53 286.07 0.5 282.57 0.5Z" fill="#437145" data-fill-palette-color="secondary"></path></g></svg></g></svg></g><g transform="matrix(1,0,0,1,0,62.031734840128564)"><svg viewBox="0 0 232.209792 22.532486555256064" height="22.532486555256064" width="232.209792"><g transform="matrix(1,0,0,1,0,0)"><svg width="232.209792" viewBox="0.45 -37.5 445.15000000000003 43.2" height="22.532486555256064" data-palette-color="#437145"><path d="M23.85-20.35L26.75-33.95Q24.7-32.85 22.4-29.83 20.1-26.8 17.75-22.1L17.75-22.1Q19.55-21.75 21.08-21.3 22.6-20.85 23.85-20.35L23.85-20.35ZM30.65-37.5L30.65-37.5Q31.7-37.5 32.75-37.33 33.8-37.15 34.6-36.8L34.6-36.8 26.75 0 19.55 0 23.4-18.15Q21.65-18.95 20.1-19.38 18.55-19.8 16.7-19.95L16.7-19.95Q13.85-13.75 12.03-7.35 10.2-0.95 10.2 2.9L10.2 2.9Q10.2 3.8 10.38 4.48 10.55 5.15 10.9 5.7L10.9 5.7Q7.1 5.7 5.65 4.4 4.2 3.1 4.2 0.4L4.2 0.4Q4.2-2.95 6.23-8.55 8.25-14.15 11.55-19.95L11.55-19.95Q9-19.8 7.58-19.15 6.15-18.5 5.7-17.35L5.7-17.35Q5.9-17.35 6.13-16.82 6.35-16.3 6.35-15.8L6.35-15.8Q6.35-14.95 5.55-14.4 4.75-13.85 3.55-13.85L3.55-13.85Q2.15-13.85 1.3-14.63 0.45-15.4 0.45-16.75L0.45-16.75Q0.45-19.35 3.38-21.13 6.3-22.9 10.65-22.9L10.65-22.9Q11.15-22.9 11.8-22.88 12.45-22.85 13.25-22.75L13.25-22.75Q17.65-29.7 22.2-33.6 26.75-37.5 30.65-37.5ZM51.75-20.85L51.75-20.85Q51.75-19.15 51.02-18.18 50.3-17.2 49.1-17.2L49.1-17.2Q48.7-17.2 48.25-17.35 47.8-17.5 47.35-17.8L47.35-17.8Q47.65-18.6 47.8-19.35 47.95-20.1 47.95-20.75L47.95-20.75Q47.95-21.75 47.6-22.28 47.25-22.8 46.55-22.8L46.55-22.8Q44.35-22.8 42.25-17.73 40.15-12.65 40.15-8.1L40.15-8.1Q40.15-5.8 40.92-4.85 41.7-3.9 43.75-3.9L43.75-3.9Q46.1-3.9 48.07-4.98 50.05-6.05 52.6-8.95L52.6-8.95 54.3-8.95Q51.4-4.25 48-1.98 44.6 0.3 40.55 0.3L40.55 0.3Q36.7 0.3 34.72-1.7 32.75-3.7 32.75-7.65L32.75-7.65Q32.75-10.5 33.62-13.7 34.5-16.9 36.05-19.4L36.05-19.4Q37.9-22.4 40.47-23.93 43.05-25.45 46.2-25.45L46.2-25.45Q48.95-25.45 50.35-24.28 51.75-23.1 51.75-20.85ZM70.95-20.85L70.95-20.85Q70.95-19.15 70.22-18.18 69.5-17.2 68.3-17.2L68.3-17.2Q67.9-17.2 67.45-17.35 67-17.5 66.55-17.8L66.55-17.8Q66.84-18.6 67-19.35 67.15-20.1 67.15-20.75L67.15-20.75Q67.15-21.75 66.8-22.28 66.45-22.8 65.75-22.8L65.75-22.8Q63.55-22.8 61.45-17.73 59.35-12.65 59.35-8.1L59.35-8.1Q59.35-5.8 60.12-4.85 60.9-3.9 62.95-3.9L62.95-3.9Q65.3-3.9 67.27-4.98 69.25-6.05 71.8-8.95L71.8-8.95 73.5-8.95Q70.59-4.25 67.2-1.98 63.8 0.3 59.75 0.3L59.75 0.3Q55.9 0.3 53.92-1.7 51.95-3.7 51.95-7.65L51.95-7.65Q51.95-10.5 52.82-13.7 53.7-16.9 55.25-19.4L55.25-19.4Q57.1-22.4 59.67-23.93 62.25-25.45 65.4-25.45L65.4-25.45Q68.15-25.45 69.55-24.28 70.95-23.1 70.95-20.85ZM90.14-20.65L90.14-20.65Q90.14-16.5 86.74-13.43 83.34-10.35 78.64-10.1L78.64-10.1Q78.59-9.25 78.57-8.83 78.54-8.4 78.54-8.1L78.54-8.1Q78.54-5.8 79.32-4.85 80.09-3.9 82.14-3.9L82.14-3.9Q84.49-3.9 86.47-4.98 88.44-6.05 90.99-8.95L90.99-8.95 92.69-8.95Q89.79-4.25 86.39-1.98 82.99 0.3 78.94 0.3L78.94 0.3Q75.09 0.3 73.12-1.7 71.14-3.7 71.14-7.65L71.14-7.65Q71.14-10.5 72.04-13.7 72.94-16.9 74.44-19.4L74.44-19.4Q76.29-22.4 78.87-23.93 81.44-25.45 84.64-25.45L84.64-25.45Q87.39-25.45 88.77-24.28 90.14-23.1 90.14-20.65ZM85.04-22.8L85.04-22.8Q83.34-22.8 81.62-19.78 79.89-16.75 79.04-12.5L79.04-12.5Q81.94-12.7 84.12-15.18 86.29-17.65 86.29-20.75L86.29-20.75Q86.29-21.8 85.99-22.3 85.69-22.8 85.04-22.8ZM90.54-5.7L90.54-5.7Q90.54-6.35 90.64-7.18 90.74-8 90.94-8.95L90.94-8.95 96.29-34 103.69-35 97.94-8Q97.84-7.55 97.79-7.18 97.74-6.8 97.74-6.4L97.74-6.4Q97.74-5.4 98.22-4.98 98.69-4.55 99.79-4.55L99.79-4.55Q101.19-4.55 102.44-5.78 103.69-7 104.29-8.95L104.29-8.95 106.39-8.95Q104.79-4.4 102.09-2.05 99.39 0.3 95.89 0.3L95.89 0.3Q93.39 0.3 91.97-1.28 90.54-2.85 90.54-5.7ZM121.84-20.65L121.84-20.65Q121.84-16.5 118.44-13.43 115.04-10.35 110.34-10.1L110.34-10.1Q110.29-9.25 110.26-8.83 110.24-8.4 110.24-8.1L110.24-8.1Q110.24-5.8 111.01-4.85 111.79-3.9 113.84-3.9L113.84-3.9Q116.19-3.9 118.16-4.98 120.14-6.05 122.69-8.95L122.69-8.95 124.39-8.95Q121.49-4.25 118.09-1.98 114.69 0.3 110.64 0.3L110.64 0.3Q106.79 0.3 104.81-1.7 102.84-3.7 102.84-7.65L102.84-7.65Q102.84-10.5 103.74-13.7 104.64-16.9 106.14-19.4L106.14-19.4Q107.99-22.4 110.56-23.93 113.14-25.45 116.34-25.45L116.34-25.45Q119.09-25.45 120.46-24.28 121.84-23.1 121.84-20.65ZM116.74-22.8L116.74-22.8Q115.04-22.8 113.31-19.78 111.59-16.75 110.74-12.5L110.74-12.5Q113.64-12.7 115.81-15.18 117.99-17.65 117.99-20.75L117.99-20.75Q117.99-21.8 117.69-22.3 117.39-22.8 116.74-22.8ZM132.04-19L128.04 0 120.84 0 126.14-25 133.34-25 132.69-21.9Q134.89-23.75 136.16-24.38 137.44-25 138.74-25L138.74-25Q140.29-25 141.24-23.93 142.19-22.85 142.19-21.25L142.19-21.25Q142.19-19.7 141.19-18.65 140.19-17.6 138.59-17.6L138.59-17.6Q137.74-17.6 137.26-18 136.79-18.4 136.59-19.65L136.59-19.65Q136.44-20.45 136.24-20.68 136.04-20.9 135.69-20.9L135.69-20.9Q134.84-20.9 134.09-20.55 133.34-20.2 132.04-19L132.04-19ZM156.93-22.7L156.93-22.7 156.93-22.35 157.48-25 164.68-25 161.08-8Q160.98-7.55 160.93-7.18 160.88-6.8 160.88-6.4L160.88-6.4Q160.88-5.3 161.38-4.78 161.88-4.25 162.93-4.25L162.93-4.25Q164.23-4.25 165.28-5.48 166.33-6.7 166.98-8.95L166.98-8.95 169.08-8.95Q167.48-4.35 164.93-2.02 162.38 0.3 159.03 0.3L159.03 0.3Q156.88 0.3 155.61-0.9 154.33-2.1 154.13-4.3L154.13-4.3Q152.58-2 150.71-0.85 148.83 0.3 146.68 0.3L146.68 0.3Q143.58 0.3 141.81-1.8 140.03-3.9 140.03-7.75L140.03-7.75Q140.03-10.55 140.88-13.6 141.73-16.65 143.23-19.15L143.23-19.15Q145.08-22.1 147.53-23.68 149.98-25.25 152.88-25.25L152.88-25.25Q154.83-25.25 155.88-24.58 156.93-23.9 156.93-22.7ZM154.08-8.95L156.48-20.25Q156.48-21 155.93-21.58 155.38-22.15 154.43-22.15L154.43-22.15Q151.68-22.15 149.56-17.55 147.43-12.95 147.43-8.45L147.43-8.45Q147.43-6.5 147.98-5.53 148.53-4.55 149.93-4.55L149.93-4.55Q151.23-4.55 152.46-5.8 153.68-7.05 154.08-8.95L154.08-8.95ZM168.38-23L168.78-25 170.43-25 171.93-31.9 179.33-32.9 177.63-25 180.63-25 180.23-23 177.23-23 174.03-8Q173.93-7.55 173.88-7.18 173.83-6.8 173.83-6.4L173.83-6.4Q173.83-5.4 174.31-4.98 174.78-4.55 175.88-4.55L175.88-4.55Q177.28-4.55 178.53-5.78 179.78-7 180.38-8.95L180.38-8.95 182.48-8.95Q180.88-4.4 178.18-2.05 175.48 0.3 171.98 0.3L171.98 0.3Q169.48 0.3 168.06-1.28 166.63-2.85 166.63-5.7L166.63-5.7Q166.63-6.35 166.73-7.18 166.83-8 167.03-8.95L167.03-8.95 170.03-23 168.38-23ZM198.48-20.65L198.48-20.65Q198.48-16.5 195.08-13.43 191.68-10.35 186.98-10.1L186.98-10.1Q186.93-9.25 186.9-8.83 186.88-8.4 186.88-8.1L186.88-8.1Q186.88-5.8 187.65-4.85 188.43-3.9 190.48-3.9L190.48-3.9Q192.83-3.9 194.8-4.98 196.78-6.05 199.33-8.95L199.33-8.95 201.03-8.95Q198.13-4.25 194.73-1.98 191.33 0.3 187.28 0.3L187.28 0.3Q183.43 0.3 181.45-1.7 179.48-3.7 179.48-7.65L179.48-7.65Q179.48-10.5 180.38-13.7 181.28-16.9 182.78-19.4L182.78-19.4Q184.63-22.4 187.2-23.93 189.78-25.45 192.98-25.45L192.98-25.45Q195.73-25.45 197.1-24.28 198.48-23.1 198.48-20.65ZM193.38-22.8L193.38-22.8Q191.68-22.8 189.95-19.78 188.23-16.75 187.38-12.5L187.38-12.5Q190.28-12.7 192.45-15.18 194.63-17.65 194.63-20.75L194.63-20.75Q194.63-21.8 194.33-22.3 194.03-22.8 193.38-22.8ZM241.77-37.25L245.07-37.25 235.37-15.4 232.07 0 224.07 0 227.37-15.4 222.57-34.15Q218.97-32.85 217.05-29.98 215.12-27.1 215.12-23.05L215.12-23.05Q215.12-22.1 215.25-21.4 215.37-20.7 215.67-20.05L215.67-20.05Q215.77-19.85 215.8-19.78 215.82-19.7 215.82-19.65L215.82-19.65Q213.02-19.65 211.75-20.83 210.47-22 210.47-24.5L210.47-24.5Q210.47-27 212.15-29.5 213.82-32 216.82-34L216.82-34Q219.37-35.65 222.3-36.58 225.22-37.5 228.02-37.5L228.02-37.5Q228.37-37.5 228.8-37.48 229.22-37.45 230.02-37.4L230.02-37.4 234.37-19.5 241.77-37.25ZM240.47-7.7L240.47-7.7Q240.47-10.55 241.4-13.75 242.32-16.95 243.92-19.45L243.92-19.45Q245.77-22.4 248.37-23.93 250.97-25.45 254.17-25.45L254.17-25.45Q257.37-25.45 258.97-23.45 260.57-21.45 260.57-17.45L260.57-17.45Q260.67-17.4 260.8-17.38 260.92-17.35 261.12-17.35L261.12-17.35Q262.67-17.35 264.82-18.2 266.97-19.05 268.82-20.35L268.82-20.35 269.27-19Q267.87-17.5 265.55-16.4 263.22-15.3 260.42-14.85L260.42-14.85Q259.82-8.1 256.52-3.95 253.22 0.2 248.47 0.2L248.47 0.2Q244.57 0.2 242.52-1.8 240.47-3.8 240.47-7.7ZM254.57-22.4L254.57-22.4Q252.17-22.4 250.05-17.55 247.92-12.7 247.92-8.35L247.92-8.35Q247.92-6 248.45-5.15 248.97-4.3 250.47-4.3L250.47-4.3Q252.32-4.3 254-7.3 255.67-10.3 256.27-14.7L256.27-14.7Q255.57-14.85 255.25-15.38 254.92-15.9 254.92-16.8L254.92-16.8Q254.92-17.75 255.32-18.45 255.72-19.15 256.47-19.5L256.47-19.5Q256.37-21.1 255.95-21.75 255.52-22.4 254.57-22.4ZM271.47-4.55L271.47-4.55Q272.77-4.55 273.79-5.68 274.82-6.8 275.47-8.95L275.47-8.95 278.87-25 286.07-25 282.47-8Q282.37-7.55 282.32-7.18 282.27-6.8 282.27-6.4L282.27-6.4Q282.27-5.4 282.74-4.98 283.22-4.55 284.32-4.55L284.32-4.55Q285.62-4.55 286.67-5.7 287.72-6.85 288.37-8.95L288.37-8.95 290.47-8.95Q288.87-4.35 286.32-2.02 283.77 0.3 280.42 0.3L280.42 0.3Q278.27 0.3 276.97-0.93 275.67-2.15 275.47-4.45L275.47-4.45Q274.02-2.05 272.19-0.88 270.37 0.3 268.07 0.3L268.07 0.3Q265.57 0.3 264.14-1.28 262.72-2.85 262.72-5.7L262.72-5.7Q262.72-6.35 262.82-7.18 262.92-8 263.12-8.95L263.12-8.95 266.52-25 273.72-25 270.12-8Q270.02-7.6 269.99-7.28 269.97-6.95 269.97-6.6L269.97-6.6Q269.97-5.6 270.34-5.08 270.72-4.55 271.47-4.55ZM297.67-19L293.67 0 286.47 0 291.77-25 298.97-25 298.32-21.9Q300.52-23.75 301.79-24.38 303.07-25 304.37-25L304.37-25Q305.92-25 306.87-23.93 307.82-22.85 307.82-21.25L307.82-21.25Q307.82-19.7 306.82-18.65 305.82-17.6 304.22-17.6L304.22-17.6Q303.37-17.6 302.89-18 302.42-18.4 302.22-19.65L302.22-19.65Q302.07-20.45 301.87-20.68 301.67-20.9 301.32-20.9L301.32-20.9Q300.47-20.9 299.72-20.55 298.97-20.2 297.67-19L297.67-19ZM327.26-11.8L327.26-11.8Q327.26-7.65 328.71-5.83 330.16-4 333.26-4L333.26-4Q336.11-4 338.69-5.33 341.26-6.65 343.01-9L343.01-9 344.16-8.5Q342.51-4.25 338.44-1.73 334.36 0.8 329.91 0.8L329.91 0.8Q324.11 0.8 321.54-2.13 318.96-5.05 318.96-11.5L318.96-11.5Q318.96-15.65 320.01-20.15 321.06-24.65 322.91-28.2L322.91-28.2Q325.31-32.75 328.74-35.13 332.16-37.5 336.41-37.5L336.41-37.5Q340.41-37.5 342.59-35.77 344.76-34.05 344.76-30.8L344.76-30.8Q344.76-28.55 343.86-27.38 342.96-26.2 341.26-26.2L341.26-26.2Q340.41-26.2 339.69-26.53 338.96-26.85 338.41-27.5L338.41-27.5Q339.31-27.95 340.01-29.33 340.71-30.7 340.71-32.1L340.71-32.1Q340.71-33.55 339.91-34.35 339.11-35.15 337.66-35.15L337.66-35.15Q335.46-35.15 333.31-32.48 331.16-29.8 329.56-25.1L329.56-25.1Q328.46-21.9 327.86-18.43 327.26-14.95 327.26-11.8ZM359.11-22.7L359.11-22.7 359.11-22.35 359.66-25 366.86-25 363.26-8Q363.16-7.55 363.11-7.18 363.06-6.8 363.06-6.4L363.06-6.4Q363.06-5.3 363.56-4.78 364.06-4.25 365.11-4.25L365.11-4.25Q366.41-4.25 367.46-5.48 368.51-6.7 369.16-8.95L369.16-8.95 371.26-8.95Q369.66-4.35 367.11-2.02 364.56 0.3 361.21 0.3L361.21 0.3Q359.06 0.3 357.78-0.9 356.51-2.1 356.31-4.3L356.31-4.3Q354.76-2 352.88-0.85 351.01 0.3 348.86 0.3L348.86 0.3Q345.76 0.3 343.98-1.8 342.21-3.9 342.21-7.75L342.21-7.75Q342.21-10.55 343.06-13.6 343.91-16.65 345.41-19.15L345.41-19.15Q347.26-22.1 349.71-23.68 352.16-25.25 355.06-25.25L355.06-25.25Q357.01-25.25 358.06-24.58 359.11-23.9 359.11-22.7ZM356.26-8.95L358.66-20.25Q358.66-21 358.11-21.58 357.56-22.15 356.61-22.15L356.61-22.15Q353.86-22.15 351.73-17.55 349.61-12.95 349.61-8.45L349.61-8.45Q349.61-6.5 350.16-5.53 350.71-4.55 352.11-4.55L352.11-4.55Q353.41-4.55 354.63-5.8 355.86-7.05 356.26-8.95L356.26-8.95ZM378.31-19L374.31 0 367.11 0 372.41-25 379.61-25 378.96-21.9Q381.16-23.75 382.43-24.38 383.71-25 385.01-25L385.01-25Q386.56-25 387.51-23.93 388.46-22.85 388.46-21.25L388.46-21.25Q388.46-19.7 387.46-18.65 386.46-17.6 384.86-17.6L384.86-17.6Q384.01-17.6 383.53-18 383.06-18.4 382.86-19.65L382.86-19.65Q382.71-20.45 382.51-20.68 382.31-20.9 381.96-20.9L381.96-20.9Q381.11-20.9 380.36-20.55 379.61-20.2 378.31-19L378.31-19ZM406.05-20.65L406.05-20.65Q406.05-16.5 402.65-13.43 399.25-10.35 394.55-10.1L394.55-10.1Q394.5-9.25 394.48-8.83 394.45-8.4 394.45-8.1L394.45-8.1Q394.45-5.8 395.23-4.85 396-3.9 398.05-3.9L398.05-3.9Q400.4-3.9 402.38-4.98 404.35-6.05 406.9-8.95L406.9-8.95 408.6-8.95Q405.7-4.25 402.3-1.98 398.9 0.3 394.85 0.3L394.85 0.3Q391 0.3 389.03-1.7 387.05-3.7 387.05-7.65L387.05-7.65Q387.05-10.5 387.95-13.7 388.85-16.9 390.35-19.4L390.35-19.4Q392.2-22.4 394.78-23.93 397.35-25.45 400.55-25.45L400.55-25.45Q403.3-25.45 404.68-24.28 406.05-23.1 406.05-20.65ZM400.95-22.8L400.95-22.8Q399.25-22.8 397.53-19.78 395.8-16.75 394.95-12.5L394.95-12.5Q397.85-12.7 400.03-15.18 402.2-17.65 402.2-20.75L402.2-20.75Q402.2-21.8 401.9-22.3 401.6-22.8 400.95-22.8ZM425.25-20.65L425.25-20.65Q425.25-16.5 421.85-13.43 418.45-10.35 413.75-10.1L413.75-10.1Q413.7-9.25 413.68-8.83 413.65-8.4 413.65-8.1L413.65-8.1Q413.65-5.8 414.43-4.85 415.2-3.9 417.25-3.9L417.25-3.9Q419.6-3.9 421.58-4.98 423.55-6.05 426.1-8.95L426.1-8.95 427.8-8.95Q424.9-4.25 421.5-1.98 418.1 0.3 414.05 0.3L414.05 0.3Q410.2 0.3 408.23-1.7 406.25-3.7 406.25-7.65L406.25-7.65Q406.25-10.5 407.15-13.7 408.05-16.9 409.55-19.4L409.55-19.4Q411.4-22.4 413.98-23.93 416.55-25.45 419.75-25.45L419.75-25.45Q422.5-25.45 423.88-24.28 425.25-23.1 425.25-20.65ZM420.15-22.8L420.15-22.8Q418.45-22.8 416.73-19.78 415-16.75 414.15-12.5L414.15-12.5Q417.05-12.7 419.23-15.18 421.4-17.65 421.4-20.75L421.4-20.75Q421.4-21.8 421.1-22.3 420.8-22.8 420.15-22.8ZM435.45-19L431.45 0 424.25 0 429.55-25 436.75-25 436.1-21.9Q438.3-23.75 439.57-24.38 440.85-25 442.15-25L442.15-25Q443.7-25 444.65-23.93 445.6-22.85 445.6-21.25L445.6-21.25Q445.6-19.7 444.6-18.65 443.6-17.6 442-17.6L442-17.6Q441.15-17.6 440.67-18 440.2-18.4 440-19.65L440-19.65Q439.85-20.45 439.65-20.68 439.45-20.9 439.1-20.9L439.1-20.9Q438.25-20.9 437.5-20.55 436.75-20.2 435.45-19L435.45-19Z" opacity="1" transform="matrix(1,0,0,1,0,0)" fill="#437145" class="slogan-text-1" data-fill-palette-color="secondary" id="text-1"></path></svg></g></svg></g></svg></g></svg></g></svg></g><defs></defs></svg><rect width="395.52" height="84.56422139538464" fill="none" stroke="none" visibility="hidden"></rect></g></svg></g></svg>